<svg width="12" height="16" viewBox="0 0 12 16" fill="none" xmlns="http://www.w3.org/2000/svg">
<g clip-path="url(#clip0_269_232)">
<path d="M3 3V8C3 9.65625 4.34375 11 6 11C7.65625 11 9 9.65625 9 8H6.5C6.225 8 6 7.775 6 7.5C6 7.225 6.225 7 6.5 7H9V6H6.5C6.225 6 6 5.775 6 5.5C6 5.225 6.225 5 6.5 5H9V4H6.5C6.225 4 6 3.775 6 3.5C6 3.225 6.225 3 6.5 3H9C9 1.34375 7.65625 0 6 0C4.34375 0 3 1.34375 3 3ZM10 7.5V8C10 10.2094 8.20937 12 6 12C3.79063 12 2 10.2094 2 8V6.75C2 6.33437 1.66562 6 1.25 6C0.834375 6 0.5 6.33437 0.5 6.75V8C0.5 10.7844 2.56875 13.0844 5.25 13.45V14.5H3.75C3.33437 14.5 3 14.8344 3 15.25C3 15.6656 3.33437 16 3.75 16H6H8.25C8.66562 16 9 15.6656 9 15.25C9 14.8344 8.66562 14.5 8.25 14.5H6.75V13.45C9.43125 13.0844 11.5 10.7844 11.5 8V6.75C11.5 6.33437 11.1656 6 10.75 6C10.3344 6 10 6.33437 10 6.75V7.5Z" fill="#0057FF"/>
</g>
<defs>
<clipPath id="clip0_269_232">
<path d="M0 0H12V16H0V0Z" fill="white"/>
</clipPath>
</defs>
</svg>
