<svg width="24" height="24" viewBox="0 0 24 24" fill="none" xmlns="http://www.w3.org/2000/svg">
<path d="M16.9453 0.0562765C17.1797 0.154714 17.3484 0.365652 17.3953 0.614089L18.3281 5.6719L23.3859 6.60003C23.6344 6.6469 23.8453 6.81565 23.9438 7.05003C24.0422 7.2844 24.0141 7.55159 23.8688 7.76253L20.9484 12L23.8688 16.2328C24.0141 16.4438 24.0422 16.711 23.9438 16.9453C23.8453 17.1797 23.6344 17.3485 23.3859 17.3953L18.3281 18.3282L17.3953 23.386C17.3484 23.6344 17.1797 23.8453 16.9453 23.9438C16.7109 24.0422 16.4438 24.0141 16.2328 23.8688L12 20.9485L7.76719 23.8688C7.55625 24.0141 7.28907 24.0422 7.05469 23.9438C6.82032 23.8453 6.65157 23.6344 6.60469 23.386L5.67188 18.3282L0.614066 17.3953C0.365629 17.3485 0.154691 17.1797 0.0562536 16.9453C-0.0421839 16.711 -0.0140589 16.4438 0.131254 16.2328L3.05157 12L0.131254 7.76721C-0.0140589 7.55628 -0.0421839 7.28909 0.0562536 7.05471C0.154691 6.82034 0.365629 6.65159 0.614066 6.60471L5.67188 5.6719L6.60469 0.614089C6.65157 0.365652 6.82032 0.154714 7.05469 0.0562765C7.28907 -0.042161 7.55625 -0.014036 7.76719 0.131277L12 3.05159L16.2328 0.131277C16.4438 -0.014036 16.7109 -0.042161 16.9453 0.0562765ZM7.5 12C7.5 10.8066 7.97411 9.66196 8.81802 8.81805C9.66194 7.97413 10.8065 7.50003 12 7.50003C13.1935 7.50003 14.3381 7.97413 15.182 8.81805C16.0259 9.66196 16.5 10.8066 16.5 12C16.5 13.1935 16.0259 14.3381 15.182 15.182C14.3381 16.0259 13.1935 16.5 12 16.5C10.8065 16.5 9.66194 16.0259 8.81802 15.182C7.97411 14.3381 7.5 13.1935 7.5 12ZM18 12C18 10.4087 17.3679 8.8826 16.2426 7.75739C15.1174 6.63217 13.5913 6.00003 12 6.00003C10.4087 6.00003 8.88258 6.63217 7.75736 7.75739C6.63214 8.8826 6 10.4087 6 12C6 13.5913 6.63214 15.1174 7.75736 16.2427C8.88258 17.3679 10.4087 18 12 18C13.5913 18 15.1174 17.3679 16.2426 16.2427C17.3679 15.1174 18 13.5913 18 12Z" fill="#0057FF"/>
</svg>
