<svg width="41" height="37" viewBox="0 0 41 37" fill="none" xmlns="http://www.w3.org/2000/svg">
<g clip-path="url(#clip0_269_509)">
<path d="M29.0938 8.9375C29.0938 12.7766 23.9539 19.618 21.6969 22.4375C21.1555 23.1125 20.15 23.1125 19.6156 22.4375C17.3586 19.618 12.2188 12.7766 12.2188 8.9375C12.2188 4.27578 15.9945 0.5 20.6562 0.5C25.318 0.5 29.0938 4.27578 29.0938 8.9375ZM29.6562 14.5906C29.9023 14.1055 30.1273 13.6203 30.3313 13.1422C30.3664 13.0578 30.4016 12.9664 30.4367 12.882L38.593 9.61953C39.7039 9.17656 40.9062 9.99219 40.9062 11.1875V30.2281C40.9062 30.9172 40.4844 31.5359 39.8445 31.7961L29.6562 35.8672V14.5906ZM10.0813 10.2242C10.25 11.2156 10.5875 12.2141 10.9812 13.1422C11.1852 13.6203 11.4102 14.1055 11.6562 14.5906V32.2672L2.71953 35.8461C1.60859 36.2891 0.40625 35.4734 0.40625 34.2781V15.2375C0.40625 14.5484 0.828125 13.9297 1.46797 13.6695L10.0883 10.2242H10.0813ZM23.4547 23.8438C24.432 22.6203 25.9648 20.6305 27.4062 18.4297V35.9586L13.9062 32.0984V18.4297C15.3477 20.6305 16.8805 22.6203 17.8578 23.8438C19.2992 25.6437 22.0133 25.6437 23.4547 23.8438ZM20.6562 11.1875C21.4022 11.1875 22.1175 10.8912 22.645 10.3637C23.1724 9.83629 23.4688 9.12092 23.4688 8.375C23.4688 7.62908 23.1724 6.91371 22.645 6.38626C22.1175 5.85882 21.4022 5.5625 20.6562 5.5625C19.9103 5.5625 19.195 5.85882 18.6675 6.38626C18.1401 6.91371 17.8438 7.62908 17.8438 8.375C17.8438 9.12092 18.1401 9.83629 18.6675 10.3637C19.195 10.8912 19.9103 11.1875 20.6562 11.1875Z" fill="white"/>
</g>
<defs>
<clipPath id="clip0_269_509">
<path d="M0.40625 0.5H40.9062V36.5H0.40625V0.5Z" fill="white"/>
</clipPath>
</defs>
</svg>
