<svg width="32" height="37" viewBox="0 0 32 37" fill="none" xmlns="http://www.w3.org/2000/svg">
<g clip-path="url(#clip0_269_517)">
<path d="M9.23438 0.5C10.4789 0.5 11.4844 1.50547 11.4844 2.75V5H20.4844V2.75C20.4844 1.50547 21.4898 0.5 22.7344 0.5C23.9789 0.5 24.9844 1.50547 24.9844 2.75V5H28.3594C30.2227 5 31.7344 6.51172 31.7344 8.375V11.75H0.234375V8.375C0.234375 6.51172 1.74609 5 3.60938 5H6.98438V2.75C6.98438 1.50547 7.98984 0.5 9.23438 0.5ZM0.234375 14H31.7344V33.125C31.7344 34.9883 30.2227 36.5 28.3594 36.5H3.60938C1.74609 36.5 0.234375 34.9883 0.234375 33.125V14ZM5.85938 18.5C5.24062 18.5 4.73438 19.0063 4.73438 19.625V26.375C4.73438 26.9937 5.24062 27.5 5.85938 27.5H12.6094C13.2281 27.5 13.7344 26.9937 13.7344 26.375V19.625C13.7344 19.0063 13.2281 18.5 12.6094 18.5H5.85938Z" fill="white"/>
</g>
<defs>
<clipPath id="clip0_269_517">
<path d="M0.234375 0.5H31.7344V36.5H0.234375V0.5Z" fill="white"/>
</clipPath>
</defs>
</svg>
