<svg width="37" height="37" viewBox="0 0 37 37" fill="none" xmlns="http://www.w3.org/2000/svg">
<g clip-path="url(#clip0_269_525)">
<path d="M18.3281 0.5C23.102 0.5 27.6804 2.39642 31.056 5.77208C34.4317 9.14773 36.3281 13.7261 36.3281 18.5C36.3281 23.2739 34.4317 27.8523 31.056 31.2279C27.6804 34.6036 23.102 36.5 18.3281 36.5C13.5542 36.5 8.97586 34.6036 5.6002 31.2279C2.22455 27.8523 0.328125 23.2739 0.328125 18.5C0.328125 13.7261 2.22455 9.14773 5.6002 5.77208C8.97586 2.39642 13.5542 0.5 18.3281 0.5ZM16.6406 8.9375V18.5C16.6406 19.0625 16.9219 19.5898 17.393 19.9062L24.143 24.4062C24.9164 24.9266 25.9641 24.7156 26.4844 23.9352C27.0047 23.1547 26.7937 22.1141 26.0133 21.5938L20.0156 17.6V8.9375C20.0156 8.00234 19.2633 7.25 18.3281 7.25C17.393 7.25 16.6406 8.00234 16.6406 8.9375Z" fill="white"/>
</g>
<defs>
<clipPath id="clip0_269_525">
<path d="M0.328125 0.5H36.3281V36.5H0.328125V0.5Z" fill="white"/>
</clipPath>
</defs>
</svg>
