<svg width="34" height="49" viewBox="0 0 34 49" fill="none" xmlns="http://www.w3.org/2000/svg">
<path d="M7.65625 9.5V24.5C7.65625 29.4688 11.6875 33.5 16.6562 33.5C21.625 33.5 25.6562 29.4688 25.6562 24.5H18.1562C17.3312 24.5 16.6562 23.825 16.6562 23C16.6562 22.175 17.3312 21.5 18.1562 21.5H25.6562V18.5H18.1562C17.3312 18.5 16.6562 17.825 16.6562 17C16.6562 16.175 17.3312 15.5 18.1562 15.5H25.6562V12.5H18.1562C17.3312 12.5 16.6562 11.825 16.6562 11C16.6562 10.175 17.3312 9.5 18.1562 9.5H25.6562C25.6562 4.53125 21.625 0.5 16.6562 0.5C11.6875 0.5 7.65625 4.53125 7.65625 9.5ZM28.6562 23V24.5C28.6562 31.1281 23.2844 36.5 16.6562 36.5C10.0281 36.5 4.65625 31.1281 4.65625 24.5V20.75C4.65625 19.5031 3.65313 18.5 2.40625 18.5C1.15937 18.5 0.15625 19.5031 0.15625 20.75V24.5C0.15625 32.8531 6.3625 39.7531 14.4062 40.85V44H9.90625C8.65938 44 7.65625 45.0031 7.65625 46.25C7.65625 47.4969 8.65938 48.5 9.90625 48.5H16.6562H23.4062C24.6531 48.5 25.6562 47.4969 25.6562 46.25C25.6562 45.0031 24.6531 44 23.4062 44H18.9062V40.85C26.95 39.7531 33.1562 32.8531 33.1562 24.5V20.75C33.1562 19.5031 32.1531 18.5 30.9062 18.5C29.6594 18.5 28.6562 19.5031 28.6562 20.75V23Z" fill="#0057FF"/>
</svg>
