<svg width="15" height="16" viewBox="0 0 15 16" fill="none" xmlns="http://www.w3.org/2000/svg">
<path d="M4.04688 0C4.6 0 5.04688 0.446875 5.04688 1V2H9.04688V1C9.04688 0.446875 9.49375 0 10.0469 0C10.6 0 11.0469 0.446875 11.0469 1V2H12.5469C13.375 2 14.0469 2.67188 14.0469 3.5V5H0.046875V3.5C0.046875 2.67188 0.71875 2 1.54688 2H3.04688V1C3.04688 0.446875 3.49375 0 4.04688 0ZM0.046875 6H14.0469V14.5C14.0469 15.3281 13.375 16 12.5469 16H1.54688C0.71875 16 0.046875 15.3281 0.046875 14.5V6ZM2.54688 8C2.27187 8 2.04688 8.225 2.04688 8.5V11.5C2.04688 11.775 2.27187 12 2.54688 12H5.54688C5.82188 12 6.04688 11.775 6.04688 11.5V8.5C6.04688 8.225 5.82188 8 5.54688 8H2.54688Z" fill="white"/>
</svg>
