<svg width="17" height="16" viewBox="0 0 17 16" fill="none" xmlns="http://www.w3.org/2000/svg">
<path d="M8.51562 0C10.6374 0 12.6722 0.842855 14.1725 2.34315C15.6728 3.84344 16.5156 5.87827 16.5156 8C16.5156 10.1217 15.6728 12.1566 14.1725 13.6569C12.6722 15.1571 10.6374 16 8.51562 16C6.39389 16 4.35906 15.1571 2.85877 13.6569C1.35848 12.1566 0.515625 10.1217 0.515625 8C0.515625 5.87827 1.35848 3.84344 2.85877 2.34315C4.35906 0.842855 6.39389 0 8.51562 0ZM7.76562 3.75V8C7.76562 8.25 7.89062 8.48438 8.1 8.625L11.1 10.625C11.4438 10.8562 11.9094 10.7625 12.1406 10.4156C12.3719 10.0687 12.2781 9.60625 11.9312 9.375L9.26562 7.6V3.75C9.26562 3.33437 8.93125 3 8.51562 3C8.1 3 7.76562 3.33437 7.76562 3.75Z" fill="white"/>
</svg>
