<svg width="18" height="17" viewBox="0 0 18 17" fill="none" xmlns="http://www.w3.org/2000/svg">
<path d="M10.1877 0.615526C10.0138 0.254589 9.64634 0.0249023 9.24275 0.0249023C8.83916 0.0249023 8.47494 0.254589 8.29775 0.615526L6.18791 4.95661L1.47605 5.65224C1.0823 5.7113 0.754172 5.98692 0.632766 6.36426C0.51136 6.74161 0.609798 7.15833 0.891984 7.43723L4.31104 10.8202L3.50385 15.601C3.43823 15.9947 3.60229 16.395 3.92713 16.628C4.25198 16.861 4.68182 16.8905 5.03619 16.7035L9.24603 14.4558L13.4559 16.7035C13.8102 16.8905 14.2401 16.8642 14.5649 16.628C14.8898 16.3917 15.0538 15.9947 14.9882 15.601L14.1777 10.8202L17.5968 7.43723C17.879 7.15833 17.9807 6.74161 17.856 6.36426C17.7313 5.98692 17.4065 5.7113 17.0127 5.65224L12.2976 4.95661L10.1877 0.615526Z" fill="#EAB308"/>
</svg>
